HIERARCHY
ROOT Hips
{
	OFFSET 0.000000 0.000000 0.000000 
	CHANNELS 6 Xposition Yposition Zposition Yrotation Zrotation Xrotation 
	JOINT Lumbar
	{
		OFFSET 0.000000 0.000000 0.000000 
		CHANNELS 3 Zrotation Xrotation Yrotation
		JOINT Neck
		{
			OFFSET 0.000000 0.445665 0.000000 
			CHANNELS 3 Zrotation Xrotation Yrotation
			End Site
			{
				OFFSET 0.000000 0.227535 0.000000 
			}
		}
		JOINT RightShoulder
		{
			OFFSET 0.019635 0.377685 0.194865 
			CHANNELS 3 Zrotation Xrotation Yrotation
			JOINT RightElbow
			{
				OFFSET 0.000000 -0.243375 0.000000 
				CHANNELS 2 Zrotation Yrotation
				JOINT RightWrist
				{
					OFFSET 0.000000 -0.264825 0.000000 
					CHANNELS 2 Zrotation Xrotation
					End Site
					{
						OFFSET 0.006600 -0.176220 0.000990 
					}
				}
			}
		}
		JOINT LeftShoulder
		{
			OFFSET 0.019635 0.377685 -0.194865 
			CHANNELS 3 Zrotation Xrotation Yrotation
			JOINT LeftElbow
			{
				OFFSET 0.000000 -0.243375 0.000000 
				CHANNELS 2 Zrotation Yrotation
				JOINT LeftWrist
				{
					OFFSET 0.000000 -0.264825 0.000000 
					CHANNELS 2 Zrotation Xrotation
					End Site
					{
						OFFSET 0.006600 -0.176220 -0.000990 
					}
				}
			}
		}
	}
	JOINT RightHip
	{
		OFFSET 0.052140 -0.069960 0.075570 
		CHANNELS 3 Zrotation Xrotation Yrotation
		JOINT RightKnee
		{
			OFFSET 0.000000 -0.402270 0.000000 
			CHANNELS 1 Zrotation
			JOINT RightAnkle
			{
				OFFSET 0.000000 -0.404085 0.000000 
				CHANNELS 3 Zrotation Xrotation Yrotation
				End Site
				{
					OFFSET 0.204105 -0.089430 0.008415 
				}
			}
		}
	}
	JOINT LeftHip
	{
		OFFSET 0.052140 -0.069960 -0.075570 
		CHANNELS 3 Zrotation Xrotation Yrotation
		JOINT LeftKnee
		{
			OFFSET 0.000000 -0.402270 0.000000 
			CHANNELS 1 Zrotation
			JOINT LeftAnkle
			{
				OFFSET 0.000000 -0.404085 0.000000 
				CHANNELS 3 Zrotation Xrotation Yrotation
				End Site
				{
					OFFSET 0.204105 -0.089430 -0.008415 
				}
			}
		}
	}
}
MOTION
Frames: 24
Frame Time: 0.02
-0.14276 -0.02205 -0.25202 748.38763 -25.72445 -11.1302 29.41479 7.42905 -10.54262 -25.80452 16.9856 -0.83079 -20.5871 -12.50283 -26.60726 19.4269 79.69681 -4.95298 0.42329 -38.52141 38.51249 -10.76664 74.66358 -78.93239 -4.62173 -0.71198 37.61718 -7.2112 -6.44139 -23.47412 -9.76822 -3.08422 -2.3865 26.83561 3.05648 2.86455 -29.2889 -7.36499 4.10827 2.81642
-0.13922 -0.02169 -0.25394 750.21125 -26.0802 -10.76965 29.12336 7.86904 -10.27264 -25.99678 17.46575 -0.83079 -20.11541 -12.6393 -26.70438 19.33982 79.73017 -5.00847 0.18406 -39.97149 37.86489 -9.9682 73.9006 -78.98699 -4.56483 -0.71187 38.08144 -7.52672 -5.88905 -23.40444 -9.74475 -3.04645 -2.36363 26.75531 3.01957 2.78438 -29.06228 -7.31762 3.9345 2.71226
-0.13542 -0.02105 -0.25554 752.03569 -26.4945 -10.36658 28.83801 8.38163 -9.98017 -26.15905 17.81515 -0.83079 -19.59001 -12.76275 -26.89261 19.39899 79.7705 -5.05298 -0.03716 -41.41481 37.20159 -9.03907 72.82283 -79.01622 -4.46804 -0.70748 38.56206 -7.83715 -5.30312 -23.2046 -9.72562 -2.9987 -2.33559 26.7355 2.99605 2.71558 -28.79418 -7.29345 3.75085 2.60342
-0.13175 -0.02056 -0.25724 753.86661 -26.88853 -9.97694 28.54537 8.86901 -9.69699 -26.32341 18.21579 -0.83079 -19.0794 -12.89644 -27.05028 19.39549 79.80697 -5.10465 -0.26857 -42.83231 36.55235 -8.17515 71.87307 -79.07181 -4.3811 -0.70333 39.04378 -8.1501 -4.73143 -23.06529 -9.70576 -2.9542 -2.30926 26.70638 2.96332 2.63327 -28.55623 -7.26017 3.57155 2.49709
-0.12804 -0.02 -0.25915 755.67291 -27.2625 -9.6129 28.27073 9.32526 -9.41768 -26.53213 18.66146 -0.83079 -18.60407 -13.01136 -27.16068 19.37442 79.84682 -5.15127 -0.49428 -44.38184 35.86826 -7.27293 70.98529 -79.06299 -4.33379 -0.70605 39.49838 -8.46324 -4.15779 -22.92028 -9.68167 -2.91433 -2.2852 26.6096 2.9426 2.57963 -28.27103 -7.22152 3.39258 2.38907
-0.12434 -0.01951 -0.26055 757.53056 -27.68821 -9.18377 27.96019 9.86238 -9.12616 -26.6432 18.97852 -0.83079 -18.04438 -13.16338 -27.39132 19.42458 79.88121 -5.20409 -0.72635 -45.65089 35.25629 -6.4258 69.89664 -79.18209 -4.193 -0.69346 40.00646 -8.77541 -3.58508 -22.75798 -9.66679 -2.86348 -2.25575 26.66254 2.90029 2.47193 -28.0731 -7.19937 3.21065 2.28347
-0.1209 -0.01923 -0.26067 759.50961 -28.25955 -8.6027 27.55299 10.61201 -8.7914 -26.48927 18.96658 -0.83079 -17.26681 -13.41001 -27.93629 19.64461 79.89754 -5.27795 -0.98228 -46.14601 34.83339 -5.75028 68.30066 -79.67207 -3.79939 -0.64095 40.70219 -9.07281 -2.99267 -22.55865 -9.6791 -2.77602 -2.20798 27.14071 2.79768 2.20657 -28.14067 -7.21619 3.02368 2.18623
-0.11746 -0.01903 -0.26028 761.5423 -28.87713 -7.9546 27.1093 11.43904 -8.44738 -26.23899 18.82769 -0.83079 -16.40646 -13.69647 -28.59802 19.93022 79.90832 -5.35742 -1.2444 -46.35728 34.4865 -5.13932 66.51889 -80.28992 -3.31314 -0.57302 41.44308 -9.37131 -2.40825 -22.3507 -9.69989 -2.67953 -2.15588 27.76209 2.67257 1.88827 -28.29525 -7.24893 2.83416 2.0916
-0.11391 -0.01882 -0.26012 763.56393 -29.46144 -7.32573 26.67946 12.22595 -8.11774 -26.03545 18.75121 -0.83079 -15.58378 -13.97178 -29.20417 20.17993 79.9224 -5.43317 -1.50224 -46.6985 34.11497 -4.50817 64.84126 -80.84218 -2.87157 -0.51136 42.1327 -9.67807 -1.84101 -22.15943 -9.71488 -2.59288 -2.10885 28.29881 2.55632 1.5988 -28.40027 -7.27481 2.64517 1.99536
-0.11083 -0.01852 -0.26 765.53317 -30.09911 -6.74225 26.25979 13.03642 -7.74593 -25.8192 18.65695 -0.83079 -14.75966 -14.21709 -29.82617 20.45931 79.93341 -5.51435 -1.76621 -47.03803 33.70231 -3.8316 63.06885 -81.42521 -2.41802 -0.45262 42.9494 -9.94879 -1.18583 -21.90714 -9.73832 -2.48157 -2.04848 28.91818 2.44643 1.28965 -28.5448 -7.29971 2.45778 1.90039
-0.10677 -0.01841 -0.25966 767.61963 -30.63647 -6.04955 25.81214 13.81507 -7.45809 -25.60583 18.5631 -0.83079 -13.91867 -14.53479 -30.43908 20.69196 79.94943 -5.58469 -2.01844 -47.31076 33.39195 -3.26926 61.45459 -81.97469 -1.96767 -0.38423 43.51612 -10.29353 -0.71472 -21.78492 -9.74602 -2.41974 -2.01501 29.40141 2.31755 1.00858 -28.62992 -7.33038 2.26747 1.80392
-0.10004 -0.0188 -0.25884 770.05625 -30.8793 -5.06568 25.27988 14.48738 -7.42122 -25.43369 18.57066 -0.83079 -13.06101 -15.04006 -31.02025 20.76756 79.9804 -5.63197 -2.24203 -47.493 33.36043 -2.98666 60.3191 -82.40233 -1.55043 -0.29286 43.34383 -10.85371 -0.76169 -21.9946 -9.70919 -2.4958 -2.0564 29.44895 2.14404 0.82116 -28.51583 -7.37121 2.06187 1.69861
-0.09233 -0.01935 -0.25782 772.60177 -31.02028 -3.97542 24.72401 15.12414 -7.46611 -25.26601 18.57044 -0.83079 -12.18867 -15.61721 -31.58353 20.79574 80.01661 -5.66649 -2.45246 -47.61306 33.42681 -2.8216 59.35248 -82.79186 -1.13911 -0.19242 42.92461 -11.48593 -0.99086 -22.34065 -9.6562 -2.62226 -2.12517 29.35896 1.95198 0.66398 -28.34195 -7.41778 1.85473 1.59239
-0.08507 -0.01981 -0.25689 775.07122 -31.21183 -2.9381 24.18925 15.77699 -7.46269 -25.09021 18.52934 -0.83079 -11.31578 -16.16335 -32.14039 20.85227 80.05056 -5.70171 -2.66586 -47.74577 33.43835 -2.616 58.31096 -83.19718 -0.72469 -0.09617 42.64402 -12.07813 -1.13003 -22.64539 -9.6097 -2.7262 -2.18168 29.34761 1.76648 0.48988 -28.20451 -7.46248 1.65376 1.48942
-0.07779 -0.02038 -0.25596 777.65397 -31.38757 -1.87946 23.60824 16.43445 -7.50616 -24.9372 18.67236 -0.83079 -10.46647 -16.70439 -32.76351 20.88094 80.08385 -5.75935 -2.89315 -47.93521 33.49516 -2.35663 57.25052 -83.61205 -0.31027 0.00113 42.25655 -12.70236 -1.30293 -22.86641 -9.56637 -2.8279 -2.23707 29.27256 1.58694 0.32419 -28.03013 -7.50357 1.43044 1.37497
-0.07032 -0.02074 -0.25498 780.02687 -31.57066 -0.84032 23.11989 17.07084 -7.47134 -24.73848 18.43031 -0.83079 -9.57061 -17.27197 -33.24195 20.95742 80.1198 -5.7663 -3.08709 -47.99451 33.48126 -2.23831 56.27766 -83.99801 0.10347 0.09791 42.02862 -13.27541 -1.44487 -23.28945 -9.51344 -2.94671 -2.30161 29.29638 1.39234 0.15282 -27.91837 -7.55467 1.25232 1.28367
-0.06264 -0.02054 -0.25394 781.78574 -31.80282 0.11348 22.8792 17.67435 -7.2019 -24.41785 17.14159 -0.83079 -8.50978 -17.9006 -33.33313 21.16066 80.16204 -5.64408 -3.20274 -47.71877 33.23631 -2.46286 55.46069 -84.29755 0.49886 0.19336 42.33111 -13.70329 -1.49302 -24.27839 -9.42964 -3.09737 -2.38238 29.61811 1.14796 -0.07573 -27.98528 -7.62022 1.20856 1.26093
-0.05479 -0.02011 -0.25286 783.33139 -32.04317 1.04425 22.73414 18.25429 -6.85067 -24.05064 15.46527 -0.83079 -7.41185 -18.55232 -33.27803 21.41653 80.20676 -5.46998 -3.28351 -47.31402 32.91847 -2.82753 54.73669 -84.57113 0.89606 0.28743 42.79472 -14.0749 -1.49909 -25.45777 -9.33832 -3.26401 -2.4718 30.0436 0.89139 -0.30477 -28.11845 -7.69764 1.20886 1.26079
-0.04697 -0.01976 -0.25179 784.97891 -32.27924 1.98932 22.55619 18.83383 -6.53584 -23.70159 13.95511 -0.83079 -6.35586 -19.18964 -33.28317 21.65895 80.25023 -5.31433 -3.37294 -46.96368 32.64161 -3.14047 53.9986 -84.86704 1.3045 0.38055 43.16782 -14.46285 -1.49785 -26.52346 -9.25575 -3.42555 -2.55891 30.42836 0.64911 -0.51052 -28.22668 -7.77742 1.18272 1.24723
-0.03933 -0.01954 -0.25072 786.60716 -32.52137 2.92365 22.33777 19.45946 -6.22683 -23.36494 12.47947 -0.83079 -5.18789 -19.84565 -33.31095 21.85531 80.29441 -5.1792 -3.49128 -46.62845 32.33577 -3.41038 53.14175 -85.11931 1.66432 0.48072 43.61442 -14.89104 -1.60566 -27.7105 -9.14981 -3.58022 -2.64039 30.78702 0.36996 -0.81115 -28.31119 -7.82518 1.18274 1.24645
-0.0313 -0.01898 -0.24966 788.22616 -32.74506 3.87135 22.22038 19.98348 -5.88556 -22.99186 10.84918 -0.83079 -4.25148 -20.46768 -33.26102 22.16105 80.33763 -4.99006 -3.54256 -46.2324 32.07079 -3.79756 52.55925 -85.45418 2.12283 0.56568 43.93797 -15.22271 -1.48511 -28.68574 -9.09136 -3.75169 -2.73494 31.21926 0.16404 -0.91652 -28.46143 -7.94174 1.13989 1.22501
-0.0221 -0.01759 -0.24866 789.84814 -32.996 4.87907 22.41503 20.23649 -5.47142 -22.52595 8.80875 -0.83079 -3.90543 -20.98599 -32.99899 22.75319 80.37759 -4.65689 -3.40651 -45.69791 31.94353 -4.50841 52.65071 -86.04614 2.87977 0.60938 43.98395 -15.28684 -0.64631 -29.04974 -9.16257 -3.97092 -2.86652 31.89407 0.17126 -0.46555 -28.77803 -8.25079 0.95843 1.13604
-0.01254 -0.01587 -0.24769 791.47202 -33.21516 5.89712 22.69933 20.38743 -5.02774 -22.02601 6.64118 -0.83079 -3.80515 -21.46941 -32.67079 23.45433 80.41649 -4.27268 -3.20631 -45.10811 31.85793 -5.32527 53.02556 -86.71826 3.73119 0.63765 43.88465 -15.25777 0.40458 -29.1894 -9.28259 -4.20523 -3.01023 32.62968 0.25117 0.17932 -29.15811 -8.6276 0.73423 1.02648
-0.00323 -0.01429 -0.24671 793.11 -33.39483 6.89855 22.90357 20.58292 -4.59989 -21.5436 4.58236 -0.83079 -3.62989 -21.97164 -32.39394 24.10764 80.45578 -3.91682 -3.04251 -44.54441 31.74834 -6.07082 53.3098 -87.33873 4.52193 0.67274 43.7841 -15.28127 1.29367 -29.41803 -9.38244 -4.42892 -3.14622 33.29347 0.29276 0.72319 -29.5093 -8.96988 0.53567 0.9295
